# Blender 3.6.1
# www.blender.org
mtllib character.mtl
o polygon0
v 0.253185 0.959634 -0.012202
v 0.000000 0.873816 -0.191957
v 0.189173 0.817209 -0.000714
v 0.000000 0.778796 -0.153527
v 0.199475 0.755687 -0.088272
v 0.000000 0.709110 -0.180896
v 0.000000 0.703372 -0.048493
v -0.199475 0.755687 -0.088272
v -0.189173 0.817209 -0.000714
v 0.125882 0.647479 -0.050488
v 0.218970 0.256135 0.117642
v 0.212388 0.543393 0.051963
v 0.197550 0.434423 0.322424
v 0.167491 0.690559 0.111026
v 0.000000 0.635792 0.260644
v 0.000000 0.718634 0.109236
v -0.167491 0.690559 0.111026
v -0.082669 0.692044 0.017716
v 0.094952 0.543109 0.306671
v 0.017776 0.550774 0.457200
v 0.249571 0.479148 0.335681
v 0.217039 0.453895 0.548209
v 0.221039 0.637242 0.316244
v 0.174606 0.700835 0.527992
v 0.106972 0.507818 0.139597
v 0.257502 0.474310 0.169720
v 0.257710 0.592814 0.181125
v 0.020271 0.429277 0.527445
v 0.041368 0.381105 0.728327
v 0.102310 0.133432 0.473925
v 0.231131 0.375614 0.714583
v 0.210672 0.395681 0.520426
v 0.138066 0.492439 0.642655
v 0.000000 0.295790 0.318612
v 0.141773 0.477383 0.176541
v 0.036346 0.530151 0.384204
v 0.219555 0.475659 0.377752
v 0.175064 0.270215 0.324983
v 0.098525 1.017450 -0.311780
v 0.251371 1.016015 -0.143030
v 0.000000 1.093171 -0.187305
v 0.000000 1.336452 0.074138
v -0.251370 1.016015 -0.143030
v -0.166521 1.273715 0.113409
v -0.292655 1.087278 0.105612
v -0.197550 0.434423 0.322424
v -0.142336 0.477273 0.176535
v -0.218970 0.256135 0.117642
v 0.116259 0.707590 0.213892
v 0.000000 0.680232 0.248141
v 0.000000 0.804110 0.302030
v -0.116259 0.707590 0.213892
v -0.201949 0.824649 0.186823
v -0.223716 0.768008 0.061089
v -0.253185 0.959634 -0.012202
v -0.193941 1.018055 0.159166
v 0.000000 1.119021 0.403765
v 0.193941 1.018055 0.159166
v 0.178131 1.073859 0.332196
v 0.000000 1.152730 0.258961
v -0.178131 1.073859 0.332196
v 0.000000 1.059491 0.244287
v 0.201949 0.824649 0.186823
v 0.223716 0.768008 0.061089
v 0.000000 0.241676 0.005625
v 0.000000 0.405998 -0.044563
v 0.000000 0.666994 -0.077324
v 0.082669 0.692044 0.017716
v 0.292655 1.087278 0.105612
v 0.237298 0.646134 0.065319
v -0.125882 0.647479 -0.050488
v -0.237298 0.646134 0.065319
v -0.212388 0.543393 0.051963
v -0.257502 0.474310 0.169720
v -0.037222 0.530458 0.384260
v -0.020804 0.429637 0.527499
v -0.101613 0.133466 0.473913
v -0.041799 0.381360 0.728367
v -0.231531 0.375097 0.714533
v -0.094952 0.543109 0.306671
v -0.221039 0.637242 0.316244
v -0.106972 0.507818 0.139597
v -0.257710 0.592814 0.181125
v -0.098525 1.017450 -0.311780
v -0.220205 0.475221 0.377717
v -0.174854 0.269965 0.324949
v -0.211063 0.395267 0.520387
v -0.138909 0.492307 0.642660
v -0.249571 0.479148 0.335681
v 0.166521 1.273715 0.113409
v 0.000000 1.280673 0.258720
v -0.069296 0.779513 -0.071243
v 0.069296 0.779513 -0.071243
v -0.217039 0.453895 0.548209
v -0.174606 0.700835 0.527992
v -0.017776 0.550774 0.457200
v 0.178287 0.891039 0.222314
v 0.126178 0.793429 0.255632
v 0.000000 0.823740 0.339346
v 0.000000 0.767311 0.306259
v -0.126178 0.793429 0.255632
v 0.097301 0.876063 0.381645
v 0.000000 0.952044 0.374605
v 0.000000 0.884745 0.042617
v -0.097301 0.876063 0.381645
v 0.000000 0.797782 0.391234
v 0.000000 0.879488 0.437561
v 0.326689 0.921639 -0.042537
v -0.326689 0.921639 -0.042537
v 0.000000 0.819336 0.070563
v -0.178287 0.891039 0.222314
vn 0.4874 -0.3620 -0.7946
vn -0.0000 -0.6850 -0.7285
vn 0.9242 -0.3793 -0.0434
vn -0.0000 0.3744 -0.9273
vn 0.7374 -0.3704 -0.5649
vn -0.0000 -0.5602 -0.8284
vn -0.0000 -0.9960 -0.0896
vn -0.7374 -0.3704 -0.5649
vn -0.4874 -0.3620 -0.7946
vn 0.9331 -0.0263 -0.3587
vn 0.5823 -0.3475 -0.7350
vn 0.5312 0.3570 -0.7684
vn 0.5991 0.0101 0.8006
vn 0.4200 0.8696 0.2598
vn -0.0000 0.7052 0.7090
vn -0.0000 0.9429 0.3332
vn -0.4200 0.8696 0.2598
vn -0.6362 0.7235 -0.2680
vn 0.1439 -0.9865 -0.0780
vn -0.8369 -0.5302 0.1363
vn -0.8251 0.3317 -0.4573
vn 0.6926 -0.3219 0.6456
vn 0.7742 0.6329 -0.0103
vn -0.3045 0.9284 0.2130
vn 0.7514 -0.5891 -0.2972
vn -0.9255 -0.3788 -0.0019
vn -0.0996 -0.8744 -0.4748
vn 0.6096 -0.7689 0.1930
vn 0.7845 0.5773 0.2263
vn 0.0069 0.9779 -0.2090
vn -0.9926 -0.1113 -0.0479
vn 0.0043 -0.9031 0.4294
vn -0.6312 0.1342 0.7639
vn -0.8433 0.5190 0.1398
vn 0.7980 0.0487 0.6006
vn 0.9494 0.3120 -0.0369
vn 0.1267 0.9773 0.1698
vn -0.5176 0.8554 -0.0220
vn 0.1653 0.8563 -0.4893
vn -0.9962 0.0424 -0.0765
vn 0.8848 0.4601 0.0736
vn 0.9542 -0.2867 0.0848
vn -0.0000 0.8611 -0.5085
vn 0.7943 0.2326 -0.5613
vn 0.3716 0.1716 -0.9124
vn -0.0000 0.9261 -0.3773
vn -0.7943 0.2326 -0.5613
vn -0.6316 0.7747 0.0298
vn -0.9078 0.0338 0.4181
vn -0.3115 -0.9372 -0.1569
vn -0.0003 -0.9942 0.1078
vn -0.5990 0.0105 0.8007
vn 0.3125 -0.9369 -0.1569
vn -0.5819 -0.3467 -0.7357
vn -0.0000 -0.0586 0.9983
vn -0.0000 -0.8643 0.5029
vn 0.5294 -0.7175 0.4526
vn -0.5294 -0.7175 0.4526
vn -0.8152 -0.1131 0.5680
vn -0.7111 -0.6625 -0.2354
vn -0.9242 -0.3793 -0.0434
vn 0.2996 -0.8747 0.3809
vn -0.0000 -0.9456 0.3255
vn -0.2996 -0.8747 0.3809
vn 0.6097 0.7512 0.2530
vn -0.0000 1.0000 -0.0093
vn -0.0000 0.9740 0.2267
vn -0.6097 0.7512 0.2530
vn -0.0000 0.2205 0.9754
vn -0.6295 -0.0308 0.7764
vn 0.6295 -0.0308 0.7764
vn 0.8152 -0.1132 0.5680
vn 0.7111 -0.6625 -0.2354
vn -0.0000 -0.2325 -0.9726
vn -0.0000 -0.2921 -0.9564
vn -0.0000 0.1446 -0.9895
vn 0.6362 0.7235 -0.2680
vn 0.9078 0.0338 0.4181
vn 0.8757 0.3429 -0.3399
vn -0.5312 0.3570 -0.7684
vn -0.8757 0.3429 -0.3399
vn -0.9331 -0.0263 -0.3587
vn -0.7514 -0.5891 -0.2972
vn 0.8412 0.5223 0.1401
vn 0.9960 0.0459 -0.0760
vn 0.5145 0.8572 -0.0219
vn 0.6303 0.1367 0.7642
vn -0.7985 0.0454 0.6003
vn 0.9255 -0.3788 -0.0019
vn -0.0064 0.9783 -0.2070
vn 0.9926 -0.1113 -0.0479
vn -0.7845 0.5773 0.2263
vn -0.3716 0.1716 -0.9124
vn -0.1680 0.8560 -0.4889
vn -0.8865 0.4568 0.0736
vn -0.9958 0.0679 -0.0619
vn -0.9530 -0.2907 0.0848
vn -0.9506 0.3081 -0.0374
vn -0.1307 0.9768 0.1698
vn 0.0996 -0.8744 -0.4748
vn -0.6096 -0.7689 0.1930
vn -0.0000 0.4348 0.9005
vn 0.6316 0.7747 0.0298
vn -0.0000 0.0019 1.0000
vn 0.8202 -0.0081 -0.5721
vn -0.8202 -0.0081 -0.5721
vn -0.6926 -0.3219 0.6455
vn -0.7742 0.6329 -0.0103
vn -0.1439 -0.9865 -0.0780
vn 0.3045 0.9284 0.2131
vn 0.8369 -0.5302 0.1363
vn -0.0000 -0.2789 0.9603
vn 0.4953 -0.2423 0.8343
vn 0.5512 -0.0095 0.8343
vn -0.0000 -0.5058 0.8626
vn -0.4953 -0.2423 0.8343
vn -0.0000 -0.0023 -1.0000
vn -0.0000 0.9325 0.3612
vn 0.8775 0.0641 0.4753
vn -0.8775 0.0641 0.4753
vn -0.0000 0.1027 0.9947
vn 0.8251 0.3317 -0.4573
vn -0.0303 -0.3370 -0.9410
vn -0.3449 0.0796 -0.9353
vn 0.9955 0.0710 -0.0622
vn 0.0303 -0.3370 -0.9410
vn 0.3449 0.0796 -0.9353
vn -0.0000 0.6307 0.7760
vn 0.4767 0.2491 0.8430
vn -0.5512 -0.0095 0.8343
vn -0.4767 0.2491 0.8430
vt 0.978333 0.626068
vt 0.957825 0.644318
vt 0.989838 0.666443
vt 0.957825 0.617004
vt 0.980530 0.609711
vt 0.957825 0.597626
vt 0.957825 0.594482
vt 0.533997 0.313049
vt 0.532990 0.075104
vt 0.648682 0.408539
vt 0.390991 0.135712
vt 0.433777 0.423248
vt 0.270447 0.291107
vt 0.270447 0.453735
vt 0.107086 0.423248
vt 0.185730 0.465607
vt 0.284759 0.670044
vt 0.377869 0.741486
vt 0.284759 0.741486
vt 0.414368 0.678558
vt 0.284759 0.579285
vt 0.416840 0.564423
vt 0.284759 0.510834
vt 0.377869 0.510834
vt 0.170349 0.670410
vt 0.170044 0.741486
vt 0.086548 0.741486
vt 0.177002 0.595795
vt 0.170044 0.510834
vt 0.896149 0.039886
vt 0.977020 0.039886
vt 0.968323 0.171295
vt 0.819061 0.039886
vt 0.838684 0.179077
vt 0.804230 0.169617
vt 0.769226 0.204224
vt 0.787354 0.039886
vt 0.768402 0.295288
vt 0.809967 0.456634
vt 0.755585 0.420960
vt 0.847717 0.302246
vt 0.887299 0.279785
vt 0.256348 0.848694
vt 0.335724 0.845367
vt 0.288757 0.809937
vt 0.256348 0.956940
vt 0.311096 0.952972
vt 0.352570 0.916107
vt 0.400360 0.048096
vt 0.270447 0.015442
vt 0.149872 0.135712
vt 0.140503 0.048096
vt 0.007904 0.075104
vt 0.520996 0.656311
vt 0.521149 0.518402
vt 0.688812 0.543091
vt 0.769806 0.698944
vt 0.949371 0.656311
vt 0.981110 0.939331
vt 0.492676 0.983917
vt 0.382324 0.767456
vt 0.474182 0.833069
vt 0.382324 0.892242
vt 0.520996 0.975525
vt 0.751984 0.959686
vt 0.741821 0.158997
vt 0.741821 0.013275
vt 0.741821 0.452271
vt 0.666779 0.451904
vt 0.361694 0.805054
vt 0.364471 0.915131
vt 0.256348 0.764648
vt 0.058105 0.576111
vt 0.034882 0.665161
vt 0.026123 0.627930
vt 0.105926 0.630463
vt 0.041656 0.660065
vt 0.058044 0.574127
vt 0.024750 0.626892
vt 0.110657 0.627106
vt 0.087036 0.741486
vt 0.172852 0.670197
vt 0.967956 0.170593
vt 0.951721 0.420960
vt 0.964691 0.295929
vt 0.896729 0.039520
vt 0.976257 0.039490
vt 0.819580 0.039642
vt 0.172546 0.510834
vt 0.283203 0.577301
vt 0.283386 0.510834
vt 0.179657 0.594147
vt 0.256348 0.809937
vt 0.809784 0.456696
vt 0.769562 0.295929
vt 0.756256 0.417389
vt 0.848297 0.303040
vt 0.874329 0.486603
vt 0.887085 0.279236
vt 0.770172 0.202667
vt 0.839600 0.176819
vt 0.804718 0.168304
vt 0.787567 0.039490
vt 0.172546 0.741486
vt 0.284271 0.669830
vt 0.283386 0.741486
vt 0.007538 0.980011
vt 0.232330 0.821045
vt 0.101379 0.976105
vt 0.134491 0.760346
vt 0.007538 0.871277
vt 0.791382 0.712158
vt 0.855316 0.673126
vt 0.845459 0.693909
vt 0.824616 0.620880
vt 0.791382 0.609375
vt 0.532959 0.075104
vt 0.741791 0.158997
vt 0.741791 0.013275
vt 0.648651 0.408539
vt 0.533966 0.313049
vt 0.006897 0.313049
vt 0.577331 0.456146
vt 0.591309 0.352905
vt 0.605286 0.456146
vt 0.564941 0.352112
vt 0.539185 0.356018
vt 0.413330 0.679108
vt 0.413910 0.563629
vt 0.488800 0.610474
vt 0.755890 0.526062
vt 0.720947 0.525208
vt 0.721161 0.507202
vt 0.755890 0.538727
vt 0.896149 0.626923
vt 0.802063 0.660400
vt 0.800964 0.620697
vt 0.799194 0.563568
vt 0.824188 0.524872
vt 0.845856 0.524628
vt 0.824188 0.542297
vt 0.824188 0.506378
vt 0.802521 0.524628
vt 0.375946 0.741486
vt 0.988251 0.567139
vt 0.960114 0.527405
vt 0.964294 0.580872
vt 0.915222 0.508026
vt 0.513428 0.352112
vt 0.501038 0.456146
vt 0.487061 0.352905
vt 0.873260 0.486145
vt 0.951325 0.420960
vt 0.964111 0.295288
vt 0.741791 0.452271
vt 0.666748 0.451904
vt 0.539185 0.459595
vt 0.256348 0.988312
vt 0.381134 0.510834
vt 0.351715 0.465607
vt 0.492096 0.610352
s 1
usemtl mario_all_tx
f 3/1/1 2/2/2 1/3/3
f 4/4/4 2/2/2 3/1/1
f 5/5/5 4/4/4 3/1/1
f 6/6/6 4/4/4 5/5/5
f 7/7/7 6/6/6 5/5/5
f 8/5/8 6/6/6 7/7/7
f 9/1/9 8/5/8 7/7/7
f 4/4/4 8/5/8 9/1/9
f 2/2/2 4/4/4 9/1/9
f 12/8/10 11/9/11 10/10/12
f 13/11/13 11/9/11 12/8/10
f 14/12/14 13/11/13 12/8/10
f 15/13/15 13/11/13 14/12/14
f 16/14/16 15/13/15 14/12/14
f 17/15/17 15/13/15 16/14/16
f 18/16/18 17/15/17 16/14/16
f 21/17/19 20/18/20 19/19/21
f 22/20/22 20/18/20 21/17/19
f 23/21/23 22/20/22 21/17/19
f 24/22/24 22/20/22 23/21/23
f 19/23/21 24/22/24 23/21/23
f 20/24/20 24/22/24 19/23/21
f 26/25/25 25/26/26 12/27/27
f 21/17/28 25/26/26 26/25/25
f 27/28/29 21/17/28 26/25/25
f 23/21/30 21/17/28 27/28/29
f 25/29/26 23/21/30 27/28/29
f 19/23/31 23/21/30 25/29/26
f 30/30/32 29/31/33 28/32/34
f 31/33/35 29/31/33 30/30/32
f 32/34/36 31/33/35 30/30/32
f 33/35/37 31/33/35 32/34/36
f 28/36/34 33/35/37 32/34/36
f 29/37/33 33/35/37 28/36/34
f 36/38/38 35/39/39 34/40/40
f 37/41/41 35/39/39 36/38/38
f 32/34/36 37/41/41 36/38/38
f 38/42/42 37/41/41 32/34/36
f 30/30/32 38/42/42 32/34/36
f 41/43/43 40/44/44 39/45/45
f 42/46/46 40/44/44 41/43/43
f 43/44/47 42/46/46 41/43/43
f 44/47/48 42/46/46 43/44/47
f 45/48/49 44/47/48 43/44/47
f 13/11/13 35/49/50 11/9/11
f 34/50/51 35/49/50 13/11/13
f 46/51/52 34/50/51 13/11/13
f 47/52/53 34/50/51 46/51/52
f 48/53/54 47/52/53 46/51/52
f 51/54/55 50/55/56 49/56/57
f 52/56/58 50/55/56 51/54/55
f 53/57/59 52/56/58 51/54/55
f 54/58/60 52/56/58 53/57/59
f 55/59/61 54/58/60 53/57/59
f 58/60/62 57/61/63 56/60/64
f 59/62/65 57/61/63 58/60/62
f 60/63/66 59/62/65 58/60/62
f 57/61/67 59/62/65 60/63/66
f 61/62/68 57/61/67 60/63/66
f 51/54/55 62/64/69 56/65/70
f 58/65/71 62/64/69 51/54/55
f 63/57/72 58/65/71 51/54/55
f 1/59/3 58/65/71 63/57/72
f 64/58/73 1/59/3 63/57/72
f 66/66/74 11/9/11 65/67/75
f 10/10/12 11/9/11 66/66/74
f 67/68/76 10/10/12 66/66/74
f 68/69/77 10/10/12 67/68/76
f 1/70/3 69/48/78 58/71/71
f 40/44/44 69/48/78 1/70/3
f 2/72/2 40/44/44 1/70/3
f 39/45/45 40/44/44 2/72/2
f 14/73/14 10/74/12 68/75/77
f 70/76/79 10/74/12 14/73/14
f 27/28/29 70/76/79 14/73/14
f 26/25/25 70/76/79 27/28/29
f 71/77/80 17/78/17 18/79/18
f 72/80/81 17/78/17 71/77/80
f 73/81/82 72/80/81 71/77/80
f 74/82/83 72/80/81 73/81/82
f 76/83/84 34/84/85 75/85/86
f 77/86/32 34/84/85 76/83/84
f 78/87/87 77/86/32 76/83/84
f 79/88/88 77/86/32 78/87/87
f 82/89/89 81/90/90 80/91/91
f 83/92/92 81/90/90 82/89/89
f 17/78/17 83/92/92 82/89/89
f 72/80/81 83/92/92 17/78/17
f 43/44/47 2/72/2 55/70/61
f 84/45/93 2/72/2 43/44/47
f 41/43/43 84/45/93 43/44/47
f 39/93/45 84/45/93 41/43/43
f 47/94/94 75/95/86 34/96/85
f 85/97/95 75/95/86 47/94/94
f 48/98/96 85/97/95 47/94/94
f 86/99/97 85/97/95 48/98/96
f 85/97/95 76/100/84 75/95/86
f 87/101/98 76/100/84 85/97/95
f 86/99/97 87/101/98 85/97/95
f 77/86/32 87/101/98 86/99/97
f 79/88/88 87/101/98 77/86/32
f 88/102/99 87/101/98 79/88/88
f 78/103/87 88/102/99 79/88/88
f 76/100/84 88/102/99 78/103/87
f 82/104/89 74/82/83 73/81/100
f 89/105/101 74/82/83 82/104/89
f 80/106/91 89/105/101 82/104/89
f 91/107/102 69/108/78 90/109/103
f 58/110/71 69/108/78 91/107/102
f 60/111/104 58/110/71 91/107/102
f 7/112/7 54/113/60 9/114/9
f 52/115/58 54/113/60 7/112/7
f 50/116/56 52/115/58 7/112/7
f 83/92/92 89/105/101 81/90/90
f 74/82/83 89/105/101 83/92/92
f 72/80/81 74/82/83 83/92/92
f 48/117/54 66/118/74 65/119/75
f 71/120/80 66/118/74 48/117/54
f 73/121/82 71/120/80 48/117/54
f 7/112/7 49/115/57 50/116/56
f 64/113/73 49/115/57 7/112/7
f 3/114/1 64/113/73 7/112/7
f 46/51/52 73/122/82 48/53/54
f 17/15/17 73/122/82 46/51/52
f 15/13/15 17/15/17 46/51/52
f 93/123/105 67/124/76 92/125/106
f 68/126/77 67/124/76 93/123/105
f 16/127/16 68/126/77 93/123/105
f 94/128/107 81/90/108 89/105/109
f 95/129/110 81/90/108 94/128/107
f 96/130/111 95/129/110 94/128/107
f 99/131/112 98/132/113 97/133/114
f 100/134/115 98/132/113 99/131/112
f 101/132/116 100/134/115 99/131/112
f 104/135/117 103/136/118 102/137/119
f 105/137/120 103/136/118 104/135/117
f 106/138/32 105/137/120 104/135/117
f 107/139/121 102/140/119 103/141/118
f 106/142/32 102/140/119 107/139/121
f 105/143/120 106/142/32 107/139/121
f 96/144/111 89/105/109 80/106/122
f 94/128/107 89/105/109 96/144/111
f 108/145/123 3/146/1 1/147/124
f 64/148/73 3/146/1 108/145/123
f 90/47/103 40/44/44 42/46/46
f 69/48/78 40/44/44 90/47/103
f 18/149/18 92/150/106 67/151/76
f 16/127/16 92/150/106 18/149/18
f 37/41/41 11/152/125 35/39/39
f 38/42/42 11/152/125 37/41/41
f 34/153/40 28/32/34 36/154/38
f 30/30/32 28/32/34 34/153/40
f 71/120/80 67/155/76 66/118/74
f 18/156/18 67/155/76 71/120/80
f 9/146/9 109/145/126 55/147/127
f 54/148/60 109/145/126 9/146/9
f 45/48/49 55/70/61 56/71/70
f 43/44/47 55/70/61 45/48/49
f 16/127/16 110/157/128 92/150/106
f 93/123/105 110/157/128 16/127/16
f 70/76/79 12/27/10 10/74/12
f 26/25/25 12/27/10 70/76/79
f 91/158/102 42/46/46 44/47/48
f 90/47/103 42/46/46 91/158/102
f 80/91/122 95/129/110 96/159/111
f 81/90/108 95/129/110 80/91/122
f 61/62/68 56/60/64 57/61/63
f 60/63/66 56/60/64 61/62/68
f 45/108/49 91/107/102 44/109/48
f 56/110/70 91/107/102 45/108/49
f 63/57/72 49/56/57 64/58/73
f 51/54/55 49/56/57 63/57/72
f 56/65/70 53/57/59 51/54/55
f 55/59/61 53/57/59 56/65/70
f 25/26/26 21/17/28 19/19/31
f 91/107/102 56/110/70 60/111/104
f 55/3/61 2/2/2 9/1/9
f 3/1/1 7/7/7 5/5/5
f 8/5/8 4/4/4 6/6/6
f 13/11/13 15/13/15 46/51/52
s 0
f 1/147/129 64/148/129 108/145/129
s 1
f 111/133/130 101/132/116 99/131/112
f 27/28/29 14/73/14 25/29/26
f 29/37/33 31/33/35 33/35/37
f 16/14/16 14/12/14 68/160/77
f 20/161/20 22/20/22 24/22/24
s 0
f 54/148/131 55/147/131 109/145/131
s 1
f 39/93/45 2/72/2 84/45/93
f 87/101/98 88/102/99 76/100/84
f 36/38/38 28/36/34 32/34/36
f 102/137/119 106/138/32 104/135/117
f 107/139/121 103/141/118 105/143/120
